<?xml version="1.0" encoding="iso-8859-1"?>
<!-- Generator: Adobe Illustrator 27.7.0, SVG Export Plug-In . SVG Version: 6.00 Build 0)  -->
<svg xmlns="http://www.w3.org/2000/svg" xmlns:xlink="http://www.w3.org/1999/xlink" version="1.1" id="Layer_1" x="0px" y="0px" viewBox="0 0 512 512" style="enable-background:new 0 0 512 512;" xml:space="preserve">
<g>
	<g>
		<path style="fill:#FFFFFF;" d="M256,512c-33.364,0-65.792-6.318-96.389-18.779c-0.083-0.031-0.165-0.063-0.248-0.097    c-43.271-17.651-80.94-46.883-108.934-84.535C21.916,370.239,4.779,324.822,0.87,277.247C0.293,270.183,0,263.036,0,256    c0-41.027,9.417-80.225,27.99-116.504c17.711-34.596,43.56-65.225,74.752-88.577C147.243,17.607,200.238,0,256,0    c25.186,0,50.062,3.649,73.94,10.846c41.663,12.546,79.757,35.808,110.16,67.27c30.465,31.525,52.425,70.481,63.502,112.653    C509.174,211.949,512,233.897,512,256c0,40.897-9.884,81.581-28.582,117.653c-18.089,34.9-44.446,65.655-76.219,88.944    C363.116,494.916,310.832,512,256,512z"/>
	</g>
	<g>
		<g>
			<path style="fill:#B5E1E8;" d="M413.739,260.606c0,47.437,73.394,87.403,50.519,125.034     c-11.882,19.552-29.577,37.602-46.19,53.052c-26.976,25.088-74.218-31.834-109.279-21.216     c-32.331,9.792-100.436,67.677-100.621,67.637c-0.468-0.099-3.816,13.07-4.284,12.971     c-51.857-11.111-96.805-38.613-130.762-77.292C34.795,377.14,165.08,310.893,165.08,247.878     c0-23.457-150.017-37.699-143.998-59.198C41.363,116.332,92.977,56.82,160.472,27.897     c29.167-12.475,77.303,103.634,110.958,103.634c53.789,0,85.944-105.484,126.271-75.602     c29.733,22.043,56.219,51.536,73.602,84.739C489.359,175.167,413.739,218.823,413.739,260.606z"/>
		</g>
		<g>
			<g>
				<path style="fill:#6E72FF;" d="M398.544,70.571c0,68.844-54.949,124.652-122.725,124.652      c-67.785,0-122.725-55.808-122.725-124.652c0-14.986,2.608-29.361,7.378-42.673c28.987-12.426,60.844-19.308,94.29-19.308      c53.457,0,102.86,17.575,142.938,47.34C398.263,60.734,398.544,65.618,398.544,70.571z"/>
			</g>
			<g>
				<path style="fill:#6E72FF;" d="M500.099,256.754c0,47.252-13.107,91.402-35.841,128.886      c-53.97-13.105-94.087-62.415-94.087-121.245c0-61.598,43.995-112.758,101.813-122.831      C489.93,175.927,500.099,215.134,500.099,256.754z"/>
			</g>
			<g>
				<path style="fill:#6E72FF;" d="M207.171,296.661c0,68.844-54.95,124.652-122.725,124.652c-3.82,0-7.591-0.177-11.323-0.522      c-38.09-43.481-61.222-100.765-61.222-163.535c0-23.365,3.199-45.952,9.181-67.358v-0.01      c18.497-11.343,40.184-17.871,63.364-17.871C152.221,172.019,207.171,227.827,207.171,296.661z"/>
			</g>
			<g>
				<g>
					<g>
						<path style="fill:#E36352;" d="M418.069,438.692c-2.065,1.92-4.149,3.801-6.282,5.652        c-19.36,16.837-41.367,30.622-65.303,40.615c-1.057,0.453-2.123,0.886-3.19,1.319c-0.019,0.01-0.039,0.02-0.068,0.03        c-8.425,3.377-17.082,6.282-25.943,8.704c-17.14,4.667-15.862-23.398-34.282-22.669c-0.64,0.02-20.39,2.494-21.039,2.514        c-2.53,0.079-9.084-19.106-11.634-19.106c-8.085,0-12.144,47.256-20.025,46.468c-8.289-0.827-16.452-2.078-24.479-3.732        c-0.174-0.03-0.359-0.069-0.543-0.108v-33.585c-0.242,0.069-0.475,0.138-0.717,0.197        c-52.661,14.336-91.072-45.184-103.432-67.613c-2.802-5.071-4.266-8.241-4.266-8.241l76.045,4.825        c0.417-6.892,0.834-13.667,1.241-19.84v-0.01c0.727-11.018,1.406-20.135,1.92-24.694c1.988-17.595,5.943-44.249,32.186-72.399        c11.188-12.003,25.332-20.254,37.887-25.777c4.576-2.018,7.911,0.207,10.335,4.519c0.32,0.571,0.63,1.172,0.911,1.812        c0.175,0.374,0.339,0.758,0.494,1.152v0.01c0.33,0.808,0.64,1.644,0.921,2.531c4.188,12.908,4.149,32.847,4.149,32.847        l11.168,1.487l1.929,0.256l26.505,3.535c0,0,9.52-15.567,20.553-29.411c0.562-0.709,1.134-1.418,1.716-2.117        c1.221-1.497,2.453-2.954,3.694-4.362c0.446-0.502,0.892-0.994,1.338-1.487c3.442-3.791,6.883-7.109,10.082-9.442        c1.716-1.26,3.354-2.235,4.906-2.846l0.01-0.01c0.96-0.394,1.862-0.64,2.734-0.738h0.01c1.319-0.148,2.521,0.049,3.587,0.65        c0.281,0.157,0.562,0.315,0.844,0.473c14.716,8.359,32.118,20.096,41.367,32.955        C418.059,317.338,421.549,395.398,418.069,438.692z"/>
					</g>
				</g>
				<g>
					<g>
						<path style="fill:#412945;" d="M210.205,343.411c0,0-0.64,20.667-1.406,46.198c-0.116,3.663-0.233,7.424-0.349,11.244        c0,0.01,0,0.01,0,0.01c-0.049,1.743-0.107,3.495-0.165,5.248c-0.01,0.561-0.029,1.123-0.048,1.684        c0,0.217-0.01,0.433-0.019,0.64c-0.756,25.019-1.541,50.974-1.968,65.191c-0.281,9.501-0.398,17.822-0.427,24.862        c-0.174-0.03-0.359-0.069-0.543-0.108c-0.465-0.098-0.931-0.197-1.396-0.295c0.029-6.971,0.145-15.173,0.426-24.517        c0.078-2.511,0.165-5.396,0.252-8.576c0.456-15.094,1.115-36.884,1.755-57.866c0.01-0.276,0.019-0.552,0.029-0.817        c0.01-0.542,0.029-1.073,0.049-1.605c0.039-1.3,0.077-2.599,0.116-3.889c0,0,0-0.01,0-0.02        c0.126-3.919,0.242-7.788,0.359-11.54c0.766-25.393,1.396-45.903,1.396-45.903L210.205,343.411z"/>
					</g>
				</g>
				<g>
					<g>
						<path style="fill:#F7EDE5;" d="M311.553,403.935c-1.028,23.493,0.737,49.063,3.238,71.365        c0.058,0.482,0.107,0.975,0.165,1.457c0.029,0.246,0.058,0.492,0.087,0.738c0.708,6.144,1.474,12.022,2.24,17.516        c-17.14,4.667-35.027,7.483-53.447,8.212c-0.304,0.009-0.887-4.339-1.194-4.328c-0.34,0.013-0.404,4.386-0.745,4.396        c-2.53,0.079-5.08,0.118-7.63,0.118c-8.085,0-16.083-0.404-23.965-1.191c-0.087-19.978-0.145-46.848-0.019-74.545        c0-0.335,0.01-0.67,0.01-1.004c0-0.443,0-0.886,0.01-1.329c0.01-2.659,0.019-5.317,0.039-7.985c0-0.68,0.01-1.359,0.01-2.028        c0.029-4.598,0.068-9.186,0.107-13.755v-0.177c0.029-2.59,0.058-5.179,0.078-7.749c0.01-0.286,0.01-0.571,0.01-0.857        c0.01-0.61,0.019-1.211,0.029-1.822c0-0.226,0-0.443,0.01-0.679v-0.01c0.029-2.865,0.068-5.701,0.097-8.517        c0.349-24.507,0.921-46.887,1.832-62.513c2.007-34.422,8.512-55.975,13.631-68.007c1.968-0.867,3.907-1.664,5.778-2.402        c11.857-4.667,21.435-6.784,24.275-7.355c0.436-0.089,0.708-0.138,0.814-0.157c0.029-0.01,0.048-0.01,0.048-0.01l49.268-3.998        l0.242-0.02c0,0,0.184,0.079,0.524,0.227c2.336,1.014,12.273,5.445,24.091,12.101c-0.136,0.345-0.262,0.699-0.397,1.063        c-10.509,27.825-31.702,87.837-37.586,133.415c-0.737,5.721-1.241,11.687-1.551,17.812c-0.039,0.62-0.068,1.241-0.087,1.871        c-0.01,0.039-0.01,0.088-0.01,0.138V403.935z"/>
					</g>
				</g>
				<g>
					<path style="fill:#412945;" d="M351.598,248.733l-24.122-11.659c-0.482-0.233-1.061-0.025-1.292,0.466       c-0.23,0.491-0.025,1.078,0.459,1.312l21.356,10.323l-31.746,5.499c-0.407,0.071-0.725,0.395-0.793,0.808       c-0.068,0.413,0.128,0.825,0.49,1.027l19.701,10.973c-11.066,0.123-42.988,1.398-56.997,11.694       c-0.002-0.003-0.003-0.006-0.005-0.009c-5.885-12.455-14.814-18.018-20.766-20.431v-0.01c-0.756-0.305-1.464-0.561-2.113-0.778       l1.619-0.374l12.952-2.983c0.427-0.099,0.737-0.473,0.756-0.916c0.019-0.443-0.262-0.847-0.679-0.975l-15.444-4.943       c7.727-2.786,19.641-4.933,21.105-5.189c0.097-0.02,0.146-0.029,0.155-0.029c0.523-0.089,0.882-0.601,0.795-1.132       c0-0.029-0.01-0.049-0.019-0.079c-0.087-0.364-0.359-0.63-0.698-0.719c-0.126-0.029-0.271-0.039-0.407-0.01       c-0.659,0.108-16.297,2.826-24.237,6.351c-0.368,0.167-0.601,0.542-0.572,0.955c0.019,0.413,0.291,0.768,0.669,0.886       l0.155,0.049l14.494,4.637l-9.937,2.284l-5.128,1.182c-0.456,0.108-0.776,0.542-0.756,1.014       c0.029,0.483,0.398,0.876,0.863,0.926c0.078,0.01,3.151,0.404,7.349,2.383c5.749,2.708,13.602,8.389,18.72,20.106       c-0.349,1.349-1.697,6.676-3.403,14.228c-3.064,13.529-7.281,34.206-8.919,51.958c-0.659,7.168-1.212,21.671-1.658,39.483       c-0.097,4.066-0.194,8.31-0.291,12.682c0,0.167-0.01,0.335-0.01,0.492c-0.01,0.66-0.029,1.31-0.039,1.969       c0,0.148-0.01,0.296-0.01,0.443c-0.194,9.373-0.359,19.259-0.514,29.214c0,0.66-0.01,1.319-0.029,1.979       c-0.048,3.692-0.097,7.394-0.145,11.067c-0.291,21.779-0.485,42.87-0.611,58.407c0.65-0.02,1.299-0.049,1.939-0.069       c0.126-15.4,0.32-36.244,0.601-57.787c0.048-4.017,0.107-8.064,0.165-12.101c0.01-0.414,0.019-0.827,0.019-1.24       c0.155-10.014,0.32-19.968,0.514-29.401c0.019-0.876,0.029-1.743,0.058-2.609c0.087-4.362,0.184-8.596,0.281-12.662       c0.446-17.91,0.989-32.502,1.658-39.68c1.648-17.743,5.865-38.42,8.919-51.889c1.929-8.537,3.393-14.169,3.432-14.316       c0.048-0.176,0.038-0.361-0.018-0.536c15.952-12.153,59.52-11.561,59.955-11.552c0.433-0.012,0.839-0.295,0.953-0.733       c0.114-0.438-0.081-0.897-0.471-1.115l-20.58-11.462l32.022-5.547c0.417-0.072,0.74-0.41,0.798-0.836       C352.2,249.331,351.98,248.917,351.598,248.733z"/>
				</g>
				<g>
					<g>
						<g>
							<g>
								<polygon style="fill:#412945;" points="178.081,383.905 128.546,260.42 21.121,260.42 64.19,396.172 282.214,403.241           229.79,390.562         "/>
							</g>
						</g>
					</g>
					<g>
						<g>
							<g>
								<g>
									<path style="fill:#FF9582;" d="M305.443,407.065c0,0-12.211-4.022-17.492-8.715c-5.281-4.693-16.502-9.721-16.502-9.721           s-44.884-9.385-45.874-6.369c-0.99,3.017,3.63,10.391,14.191,13.072c10.561,2.682,17.822,5.028,17.822,5.028           s-10.437,1.55-20.998,1.215c-10.561-0.335-35.272-0.88-35.272-0.88s4.785,8.715,19.307,13.072           c0,0,3.96,13.743,18.812,16.759c0,0-3.63,6.704,13.861,11.732c17.492,5.028,54.455,15.419,54.455,15.419L305.443,407.065z"/>
								</g>
							</g>
							<g>
								<g>
									<g>
										<path style="fill:#412945;" d="M263.2,402.184c-0.052,0-0.105-0.004-0.159-0.013c-0.161-0.027-16.214-2.739-27.059-6.578            c-11.424-4.042-11.384-12.973-11.377-13.351c0.011-0.544,0.446-0.952,0.988-0.965c0.534,0.011,0.959,0.459,0.951,1            c-0.004,0.331,0.036,7.904,10.076,11.457c10.685,3.782,26.577,6.468,26.736,6.495c0.528,0.089,0.886,0.595,0.799,1.132            C264.077,401.842,263.666,402.184,263.2,402.184z"/>
									</g>
								</g>
								<g>
									<g>
										<path style="fill:#412945;" d="M260.229,421.793c-0.011,0-0.022,0-0.033-0.001c-0.198-0.007-19.983-0.744-37.732-6.754            c-17.996-6.092-21.857-13.585-22.013-13.901c-0.24-0.486-0.046-1.078,0.434-1.321c0.477-0.241,1.057-0.047,1.298,0.435            c0.048,0.093,3.82,7.139,20.895,12.92c17.486,5.919,36.989,6.647,37.185,6.654c0.535,0.018,0.954,0.473,0.936,1.016            C261.18,421.373,260.749,421.793,260.229,421.793z"/>
									</g>
								</g>
								<g>
									<g>
										<path style="fill:#412945;" d="M258.573,433.978c-4.51,0-11.547-0.506-20.049-2.834            c-15.022-4.115-18.674-15.099-18.822-15.564c-0.165-0.517,0.115-1.073,0.624-1.24c0.513-0.167,1.055,0.116,1.22,0.632            c0.043,0.133,3.543,10.452,17.482,14.27c14.297,3.915,24.591,2.506,24.693,2.489c0.534-0.075,1.021,0.299,1.096,0.837            c0.075,0.537-0.293,1.036-0.822,1.113C263.813,433.708,261.867,433.978,258.573,433.978z"/>
									</g>
								</g>
							</g>
						</g>
						<g>
							<g>
								<path style="fill:#E36352;" d="M414.191,427.851c0,0-0.339,7.109-2.404,16.492c-19.36,16.837-41.367,30.622-65.303,40.615          c-1.057,0.453-2.123,0.886-3.19,1.319c-0.019,0.01-0.039,0.02-0.068,0.03c-0.708-0.187-1.415-0.364-2.123-0.551          c-9.171-2.462-18.226-5.75-26.147-9c-15.036-6.174-26.011-12.209-26.011-12.209l0.126-0.965l1.386-10.781l6.331-49.172          l0.446-3.456l0.126-0.985l14.203,4.598l2.327,0.758l40.892,13.243l0.233-2.462l0.174-1.881c0.01,0,0.01,0,0-0.01l0.01-0.089          l2.104-22.38l5.894-62.671l43.073,16.089L414.191,427.851z"/>
							</g>
						</g>
						<g>
							<g>
								<path style="fill:#412945;" d="M372.352,417.844l-17.137-4.495c0.007-0.025,0.022-0.046,0.027-0.072l12.541-69.384          c0.097-0.535-0.252-1.048-0.778-1.146c-0.53-0.104-1.032,0.256-1.129,0.79l-12.53,69.321l-55.746-14.622          c-0.521-0.142-1.047,0.181-1.181,0.707c-0.134,0.527,0.178,1.064,0.696,1.199l74.752,19.608          c0.081,0.022,0.163,0.032,0.243,0.032c0.432,0,0.825-0.294,0.938-0.738C373.182,418.516,372.87,417.979,372.352,417.844z"/>
							</g>
							<g>
								<g>
									<path style="fill:#412945;" d="M314.791,475.3c9.239,3.604,20.242,7.267,31.692,9.659c-1.057,0.453-2.123,0.886-3.19,1.319           c-0.737-0.177-1.464-0.345-2.191-0.522c-9.365-2.275-18.304-5.268-26.059-8.261c-15.521-5.986-26.331-11.953-26.563-12.081           c-0.475-0.266-0.65-0.857-0.388-1.339c0.194-0.364,0.591-0.551,0.979-0.492c0.116,0.01,0.223,0.049,0.339,0.108           C289.633,463.819,299.929,469.491,314.791,475.3z"/>
								</g>
							</g>
						</g>
					</g>
				</g>
				<g>
					<g>
						<g>
							<path style="fill:#412945;" d="M308.001,102.295c0,0-37.376-23.128-52.97-9.301c-15.594,13.826-5.198,30.167-5.198,30.167         s-16.089,1.257-17.327,16.843c-1.238,15.586,29.703,24.134,29.703,24.134l50.247-46.759L308.001,102.295z"/>
						</g>
					</g>
					<g>
						<g>
							<g>
								<path style="fill:#FF9582;" d="M341.665,188.944c-3.296,2.265-7.649,2.836-11.314,2.806l-3.287,46.208l-48.27,42.319          l-2.724-37.79l2.55-19.761l6.443-5.545l-5.28-3.523c-9.249-0.679-17.111-2.777-20.301-6.617          c-7.988-9.61-8.473-40.783-8.444-49.969c-0.136-1.477-0.213-2.983-0.213-4.5c0-25.314,20.204-45.834,45.129-45.834          c24.925,0,45.129,20.519,45.129,45.834c0,2.373-0.184,4.697-0.523,6.971c1.144,0.177,2.346,0.64,3.577,1.497          C355.034,168.582,348.597,184.169,341.665,188.944z"/>
							</g>
						</g>
						<g>
							<polygon style="fill:#412945;" points="307.753,214.16 278.62,222.726 279.784,213.658        "/>
						</g>
						<g>
							<g>
								<path style="fill:#412945;" d="M308.001,102.295l-30.693,6.034c0,0-0.878,16.246,10.148,27.15          c9.406,9.302,21.535,8.799,21.535,8.799s-12.376,14.832,17.574,21.871l1.238,16.089c0,0,6.188-22.751,13.861-20.991          c0,0,10.891,2.137,6.931,17.22c0,0,24.505-47.513,7.921-59.328C339.931,107.323,308.001,102.295,308.001,102.295z"/>
							</g>
						</g>
						<g>
							<g>
								<path style="fill:#412945;" d="M345.222,166.696c0.416-0.343,0.478-0.964,0.141-1.385c-0.338-0.422-0.95-0.487-1.364-0.143          c-5.503,4.546-9.37,10.926-10.889,17.962c-0.115,0.531,0.216,1.056,0.739,1.173c0.07,0.016,0.14,0.023,0.209,0.023          c0.445,0,0.847-0.314,0.946-0.774c0.497-2.303,1.278-4.523,2.282-6.629c0.151,0.029,0.307,0.034,0.464-0.016          c1.883-0.596,3.953-0.587,5.831,0.027c0.099,0.033,0.199,0.048,0.297,0.048c0.41,0,0.791-0.266,0.923-0.683          c0.164-0.517-0.116-1.072-0.625-1.239c-1.836-0.602-3.824-0.712-5.72-0.349          C340.225,171.673,342.504,168.942,345.222,166.696z"/>
							</g>
							<g>
								<g>
									<g>
										<g>
											<path style="fill:#412945;" d="M266.707,165.017c0,3.354-1.893,6.073-4.229,6.073c-2.336,0-4.229-2.719-4.229-6.073             c0-3.354,1.893-6.073,4.229-6.073C264.813,158.945,266.707,161.663,266.707,165.017z"/>
										</g>
									</g>
									<g>
										<g>
											<path style="fill:#412945;" d="M299.606,165.017c0,3.354-1.894,6.073-4.229,6.073c-2.336,0-4.229-2.719-4.229-6.073             c0-3.354,1.893-6.073,4.229-6.073C297.712,158.945,299.606,161.663,299.606,165.017z"/>
										</g>
									</g>
								</g>
								<g>
									<g>
										<path style="fill:#412945;" d="M282.244,188.12c-0.649,0-1.298-0.078-1.93-0.24c-2.707-0.695-4.983-2.895-5.8-5.607            c-0.157-0.52,0.131-1.071,0.643-1.229c0.512-0.157,1.054,0.133,1.21,0.653c0.622,2.066,2.358,3.744,4.421,4.273            c2.06,0.528,4.374-0.11,5.889-1.628c1.248-1.253,1.96-2.974,2.644-5.174c0.161-0.519,0.709-0.807,1.217-0.642            c0.511,0.164,0.794,0.717,0.632,1.236c-0.667,2.145-1.508,4.354-3.131,5.981            C286.517,187.27,284.379,188.12,282.244,188.12z"/>
									</g>
								</g>
								<g>
									<g>
										<g>
											<path style="fill:#412945;" d="M255.134,153.329c-0.254,0-0.507-0.1-0.698-0.301c-0.372-0.391-0.361-1.015,0.025-1.392             c2.252-2.206,5.206-3.594,8.32-3.907c0.539-0.055,1.007,0.342,1.06,0.883c0.053,0.541-0.337,1.024-0.869,1.077             c-2.681,0.27-5.225,1.464-7.164,3.364C255.619,153.237,255.376,153.329,255.134,153.329z"/>
										</g>
									</g>
									<g>
										<g>
											<path style="fill:#412945;" d="M300.536,151.896c-0.181,0-0.365-0.051-0.528-0.159c-2.333-1.542-5.152-2.398-7.936-2.41             c-0.535-0.002-0.968-0.445-0.965-0.989c0.002-0.544,0.454-0.946,0.974-0.98c3.152,0.014,6.343,0.983,8.985,2.728             c0.449,0.297,0.576,0.907,0.284,1.363C301.164,151.738,300.853,151.896,300.536,151.896z"/>
										</g>
									</g>
								</g>
							</g>
						</g>
					</g>
				</g>
				<g>
					<path style="fill:#6E72FF;" d="M111.559,339.595H80.812c-0.394,0-0.718-0.23-0.828-0.587l-7.275-23.768       c-0.094-0.307-0.014-0.662,0.211-0.942c0.226-0.281,0.534-0.446,0.903-0.446l31.621,0.224c0.401,0.003,0.728,0.244,0.828,0.613       l6.402,23.544c0.083,0.304-0.002,0.651-0.225,0.925C112.225,339.431,111.891,339.595,111.559,339.595z M81.738,337.62h28.615       l-5.866-21.573l-29.416-0.208L81.738,337.62z"/>
				</g>
			</g>
			<g>
				<g>
					<g>
						<g>
							<g>
								<path style="fill:#F7EDE5;" d="M180.894,263.047l15.272,5.414c0.892,0.316,0.907,1.591,0.023,1.93l-15.318,5.858          c-0.272,0.104-0.487,0.322-0.59,0.599l-5.804,15.655c-0.329,0.886-1.563,0.886-1.892,0l-5.804-15.655          c-0.102-0.276-0.317-0.495-0.59-0.599l-15.283-5.845c-0.888-0.34-0.867-1.622,0.031-1.932l15.714-5.421          c0.297-0.103,0.531-0.34,0.632-0.642l5.325-15.922c0.307-0.917,1.578-0.932,1.906-0.023l5.762,15.967          C180.382,262.72,180.609,262.946,180.894,263.047z"/>
							</g>
						</g>
					</g>
				</g>
				<g>
					<g>
						<g>
							<g>
								<path style="fill:#F7EDE5;" d="M345.497,68.471l15.272,5.414c0.892,0.316,0.907,1.591,0.023,1.929l-15.318,5.858          c-0.272,0.104-0.487,0.322-0.59,0.599l-5.804,15.655c-0.329,0.886-1.563,0.886-1.892,0l-5.804-15.655          c-0.103-0.276-0.317-0.495-0.59-0.599l-15.283-5.845c-0.888-0.34-0.867-1.622,0.031-1.932l15.714-5.421          c0.297-0.103,0.531-0.34,0.632-0.642l5.325-15.921c0.306-0.917,1.578-0.932,1.906-0.023l5.762,15.967          C344.986,68.143,345.212,68.369,345.497,68.471z"/>
							</g>
						</g>
					</g>
				</g>
				<g>
					<g>
						<g>
							<g>
								<path style="fill:#F7EDE5;" d="M427.923,362.598l15.272,5.414c0.892,0.316,0.907,1.591,0.023,1.93L427.9,375.8          c-0.272,0.104-0.487,0.322-0.59,0.599l-5.804,15.655c-0.329,0.886-1.563,0.886-1.892,0l-5.804-15.655          c-0.103-0.276-0.317-0.495-0.59-0.599l-15.283-5.845c-0.888-0.34-0.867-1.622,0.031-1.932l15.714-5.421          c0.297-0.103,0.531-0.34,0.632-0.642l5.325-15.921c0.307-0.917,1.578-0.932,1.906-0.023l5.762,15.967          C427.411,362.271,427.637,362.497,427.923,362.598z"/>
							</g>
						</g>
					</g>
				</g>
				<g>
					<g>
						<g>
							<g>
								<path style="fill:#F7EDE5;" d="M460.596,234.389l15.272,5.413c0.892,0.316,0.907,1.592,0.023,1.93l-15.318,5.858          c-0.272,0.104-0.487,0.322-0.59,0.599l-5.804,15.655c-0.329,0.886-1.563,0.886-1.891,0l-5.804-15.655          c-0.103-0.276-0.317-0.494-0.59-0.599l-15.283-5.845c-0.888-0.34-0.867-1.622,0.031-1.932l15.714-5.421          c0.297-0.103,0.531-0.34,0.632-0.642l5.325-15.922c0.307-0.917,1.578-0.932,1.906-0.023l5.762,15.967          C460.084,234.061,460.31,234.288,460.596,234.389z"/>
							</g>
						</g>
					</g>
				</g>
			</g>
			<g>
				<path style="fill:#F7EDE5;" d="M241.752,201.891c-12.594-25.924-39.639-54.148-68.078-52.964      c-10.099,0.421-19.945,3.346-29.401,6.972c-11.174,4.284-22.412,9.929-29.602,19.616c-13.675-6.996-29.923-8.641-44.69-4.526      c-14.767,4.115-27.912,13.951-36.158,27.056L241.752,201.891z"/>
			</g>
			<g>
				<g>
					<path style="fill:#412945;" d="M164.932,179.724v-15.838h-17.947c-0.938-4.938-2.799-9.538-5.394-13.614l12.578-12.775       l-11.027-11.199l-12.505,12.701c-4.022-2.715-8.578-4.677-13.478-5.683v-17.948h-15.594v18.039       c-4.843,1.051-9.347,3.03-13.317,5.756l-12.666-12.864l-11.027,11.199l12.83,13.03c-2.51,4.013-4.314,8.523-5.232,13.359       h-18.36v15.838H72.38c1.03,4.687,2.891,9.055,5.427,12.932l-13.25,13.457l11.027,11.199l13.32-13.528       c3.809,2.503,8.081,4.337,12.663,5.331v19.128h15.594v-19.037c4.637-0.952,8.963-2.766,12.823-5.259l13.16,13.365       l11.027-11.199l-12.999-13.202c2.621-3.939,4.537-8.398,5.589-13.187H164.932z M109.565,193.72       c-12.206,0-22.104-10.053-22.104-22.459c0-12.406,9.898-22.459,22.104-22.459c12.215,0,22.113,10.053,22.113,22.459       C131.678,183.667,121.78,193.72,109.565,193.72z"/>
				</g>
				<g>
					<path style="fill:#412945;" d="M243.149,85.153V71.925h-14.989c-0.783-4.124-2.338-7.966-4.505-11.37l10.505-10.669       l-9.209-9.353L214.507,51.14c-3.359-2.267-7.164-3.906-11.256-4.746v-14.99h-13.024v15.066       c-4.045,0.878-7.807,2.531-11.122,4.807l-10.579-10.744l-9.209,9.353l10.715,10.883c-2.097,3.351-3.604,7.119-4.37,11.157       h-15.334v13.228h15.523c0.86,3.915,2.415,7.563,4.533,10.8l-11.066,11.239l9.209,9.353l11.125-11.299       c3.181,2.09,6.749,3.622,10.576,4.453v15.975h13.024v-15.9c3.873-0.795,7.486-2.31,10.71-4.392l10.991,11.163l9.209-9.353       l-10.857-11.026c2.189-3.29,3.789-7.014,4.668-11.013H243.149z M196.907,96.842c-10.194,0-18.461-8.396-18.461-18.758       c0-10.361,8.267-18.757,18.461-18.757c10.202,0,18.469,8.396,18.469,18.757C215.376,88.446,207.109,96.842,196.907,96.842z"/>
				</g>
			</g>
		</g>
	</g>
</g>
<g>
</g>
<g>
</g>
<g>
</g>
<g>
</g>
<g>
</g>
<g>
</g>
<g>
</g>
<g>
</g>
<g>
</g>
<g>
</g>
<g>
</g>
<g>
</g>
<g>
</g>
<g>
</g>
<g>
</g>
</svg>
